<svg width="563" height="368" viewBox="0 0 563 368" fill="none" xmlns="http://www.w3.org/2000/svg">
<path d="M434.434 212.39L434.528 330.146C434.528 349.016 449.88 366.045 468.703 367.178C489.864 368.454 507.411 351.685 507.411 330.808V124.912C507.411 105.451 492.414 88.9428 473.001 87.9037C460.885 87.2424 451.32 92.4854 442.842 101.058L315.214 228.686C307.538 236.456 302.768 247.084 302.768 258.869L302.862 343.986L434.434 212.39Z" fill="url(#paint0_linear)"/>
<path d="M216.807 124.299C216.807 104.177 233.126 87.8574 253.248 87.8574C273.37 87.8574 289.69 104.177 289.69 124.299V330.808C289.69 350.93 273.37 367.25 253.248 367.25C233.126 367.25 216.807 350.93 216.807 330.808V124.299V124.299Z" fill="url(#paint1_linear)"/>
<path d="M253.248 72.883C273.374 72.883 289.69 56.5676 289.69 36.4415C289.69 16.3154 273.374 0 253.248 0C233.122 0 216.807 16.3154 216.807 36.4415C216.807 56.5676 233.122 72.883 253.248 72.883Z" fill="url(#paint2_linear)"/>
<path d="M72.9774 242.716L72.883 124.96C72.883 106.09 57.5317 89.0617 38.7087 87.928C17.5476 86.6291 0 103.421 0 124.299V330.194C0 349.655 14.997 366.163 34.4104 367.202C46.5261 367.864 56.0911 362.621 64.5697 354.048L192.198 226.42C199.873 218.65 204.644 208.022 204.644 196.237L204.549 111.12L72.9774 242.716Z" fill="url(#paint3_linear)"/>
<defs>
<linearGradient id="paint0_linear" x1="-2.18445e-05" y1="367" x2="507" y2="88" gradientUnits="userSpaceOnUse">
<stop stop-color="#6A5AFF"/>
<stop offset="1" stop-color="#00D3C3"/>
</linearGradient>
<linearGradient id="paint1_linear" x1="253.248" y1="1.54628e-06" x2="253.248" y2="367.25" gradientUnits="userSpaceOnUse">
<stop stop-color="#929497"/>
<stop offset="1" stop-color="#6D6E70"/>
</linearGradient>
<linearGradient id="paint2_linear" x1="253.248" y1="0" x2="253.248" y2="367" gradientUnits="userSpaceOnUse">
<stop stop-color="#929497"/>
<stop offset="1" stop-color="#6D6E70"/>
</linearGradient>
<linearGradient id="paint3_linear" x1="-2.93364e-06" y1="367" x2="507.002" y2="88.0033" gradientUnits="userSpaceOnUse">
<stop stop-color="#6A5AFF"/>
<stop offset="1" stop-color="#00D3C3"/>
</linearGradient>
</defs>
</svg>
